<svg width="130" height="88" viewBox="0 0 130 88" fill="none" xmlns="http://www.w3.org/2000/svg">
<path d="M56.6966 85.9443C56.466 85.982 56.233 86.0174 56.0024 86.0551C55.4495 86.1612 54.8613 86.1211 54.3601 86.4512C54.1248 86.4842 53.8895 86.5196 53.6542 86.5526C53.3977 86.4748 53.1624 86.5102 52.9483 86.6776C52.713 86.6964 52.4777 86.7153 52.2424 86.7365C51.7601 86.7035 51.2801 86.6705 50.8377 86.9298C50.4142 86.8685 49.9977 86.8827 49.6048 87.0784C49.2989 87.0029 48.9954 86.9676 48.7012 87.1279C48.1601 87.1609 47.6189 87.1916 47.0777 87.2246C45.6165 87.267 44.153 87.3071 42.6918 87.3495C42.5154 87.2364 42.3318 87.1798 42.1342 87.3C41.8189 87.1491 41.4989 87.1798 41.1765 87.2694L41.0848 87.1963L40.9789 87.2434C40.3483 87.0713 39.7106 87.1373 39.073 87.175C38.3859 86.9605 37.6801 86.9982 36.9765 87.0029C36.6636 86.8568 36.3412 86.852 36.0142 86.9487C35.6495 86.7412 35.2636 86.7176 34.8636 86.8025C34.5577 86.6446 34.2401 86.5998 33.9059 86.7035C33.6189 86.5361 33.3106 86.4866 32.9859 86.555C32.7601 86.4088 32.5177 86.397 32.2636 86.4654C31.6848 86.1188 31.0236 86.1636 30.393 86.0598C30.0871 86.0056 29.7836 85.9537 29.4777 85.8995C29.3436 85.7345 29.1671 85.7345 28.9812 85.7793C28.8495 85.751 28.72 85.7227 28.5883 85.6944C28.4895 85.659 28.3883 85.6237 28.2895 85.5883C28.0636 85.5506 27.8377 85.5128 27.6095 85.4775C27.5224 85.4374 27.4353 85.3973 27.3506 85.3572C27.193 85.3266 27.033 85.2983 26.8753 85.2676C26.5906 85.0814 26.2847 84.9729 25.9389 85.0059C24.5247 84.4754 23.1083 83.9473 21.6942 83.4168C21.5271 83.1881 21.2894 83.1268 21.0259 83.1245C20.8965 82.9075 20.6824 82.8627 20.4541 82.8392C20.2706 82.6246 20.0565 82.4643 19.76 82.4548C19.553 82.3535 19.3459 82.2521 19.1389 82.1531C18.8071 81.8183 18.4283 81.5636 17.9624 81.4575C17.6447 81.0685 17.24 80.8068 16.7694 80.6394C16.7624 80.5474 16.713 80.505 16.6212 80.5121C16.5318 80.2457 16.3483 80.1042 16.0659 80.1018L16.0283 80.0311L15.9483 80.0287C14.4988 78.7178 13.0494 77.4069 11.6024 76.0937C11.3718 75.7047 11.0941 75.3581 10.6988 75.1246C9.76707 73.9293 8.83531 72.7339 7.90354 71.5409L7.92472 71.4772L7.84942 71.4631C6.36001 69.2515 5.05177 66.9362 3.88236 64.5408C3.31295 62.9776 2.74353 61.4144 2.17412 59.8488C1.87059 58.6723 1.56471 57.4935 1.26118 56.317C1.24 56.1637 1.21883 56.0104 1.19765 55.8548C1.21647 55.1923 1.03294 54.5722 0.795295 53.9639C0.769413 53.7305 0.741178 53.4947 0.715295 53.2613C0.771766 52.8534 0.731766 52.4597 0.524707 52.0942C0.604707 51.6864 0.538824 51.295 0.395295 50.9107C0.472942 50.6607 0.442354 50.4273 0.289412 50.2128C0.272942 50.0477 0.258824 49.885 0.242353 49.72C0.341177 49.4701 0.312942 49.2296 0.18353 48.9985C0.298824 48.4492 0.254118 47.9093 0.084706 47.3788C0.0564707 46.4404 0.0282353 45.502 0 44.5636C0.0235294 42.833 0.0470589 41.1025 0.0705883 39.3719C0.084706 39.221 0.0988237 39.0725 0.110588 38.9216C0.301177 38.3816 0.294118 37.8252 0.251765 37.2664C0.268236 37.0259 0.282353 36.7854 0.298824 36.545C0.454118 36.2573 0.548236 35.9602 0.421177 35.6349C0.458824 35.3119 0.496471 34.9888 0.534118 34.6635C0.694119 34.3664 0.752942 34.0552 0.658825 33.7251C0.818825 33.428 0.84706 33.1121 0.797648 32.7844C0.95059 32.5698 0.985884 32.3317 0.922354 32.077C0.95059 31.9167 0.981178 31.7587 1.00941 31.5984C1.16941 31.3909 1.22588 31.1575 1.17412 30.9005C1.20706 30.6671 1.24235 30.4313 1.2753 30.1979C1.50588 29.9174 1.53412 29.592 1.48236 29.2501C1.55294 29.1982 1.56941 29.1322 1.52706 29.0544C1.66353 29.0073 1.68471 28.913 1.63059 28.7904C1.66353 28.6324 1.69647 28.4721 1.72941 28.3141C1.91765 28.1938 1.95059 28.017 1.90824 27.8142C2.24471 26.6472 2.58118 25.4801 2.91765 24.3154L2.92 24.3106C2.95295 24.2399 2.98589 24.1668 3.01883 24.0961C3.76001 22.4457 4.50354 20.7953 5.24471 19.1448C5.64471 18.4375 6.04471 17.7278 6.44472 17.0205C7.24707 16.068 7.96001 15.0518 8.59531 13.9814C11.0753 11.0955 13.8094 8.49493 16.9977 6.39655C18.3389 5.63735 19.6777 4.8758 21.0189 4.11661C21.2189 4.10247 21.4118 4.07889 21.5342 3.89027L21.6165 3.91149L21.6589 3.83368L21.6965 3.81482C21.9342 3.72759 22.1718 3.64035 22.4094 3.55311C22.5977 3.58848 22.7318 3.51539 22.8259 3.3527C22.9247 3.31734 23.0236 3.28433 23.1224 3.24896C23.2471 3.31027 23.313 3.25132 23.353 3.13815C23.5153 3.08156 23.6777 3.02498 23.8424 2.96839C23.9459 3.04148 23.993 2.99433 24.0142 2.88823C24.1036 2.86465 24.1906 2.83872 24.28 2.81514C26.8353 1.95692 29.433 1.26375 32.073 0.721468L32.1153 0.716753C32.4353 0.818135 32.7153 0.686102 32.993 0.556426C34.2801 0.695533 35.4589 -0.00943096 36.7389 0.0707322C36.9742 0.29236 37.2071 0.19805 37.4377 0.0613012C37.9836 0.0400816 38.5295 0.0212197 39.0777 0C41.4777 0.00235774 43.8777 0.00471548 46.2777 0.00707322C46.5436 0.00707322 46.8095 0.00707322 47.0754 0.00943096C47.313 0.0235774 47.5483 0.0400816 47.786 0.054228C48.0142 0.160326 48.2471 0.231058 48.4989 0.127318C48.6565 0.139107 48.8165 0.153253 48.9742 0.165042C49.0424 0.17683 49.113 0.188619 49.1813 0.202766C50.2024 0.311222 51.2236 0.419678 52.2448 0.530491C53.5013 0.773338 54.7577 1.01383 56.0142 1.25667C56.1389 1.36985 56.2754 1.43822 56.4471 1.36277C56.6119 1.40285 56.7766 1.44294 56.9436 1.48538C58.746 2.10075 60.5483 2.71376 62.3507 3.32913C62.6919 3.60498 63.0848 3.76531 63.5107 3.8549C64.8472 4.63296 66.1813 5.41337 67.5178 6.19142C67.6189 6.26687 67.7201 6.34468 67.8213 6.42012C67.8754 6.46492 67.9272 6.50972 67.9813 6.55451C68.9978 7.37972 70.0119 8.20493 71.0283 9.03014C71.4142 9.58892 71.8848 10.0605 72.4448 10.4448C73.3931 11.6166 74.3413 12.7884 75.2895 13.9602C76.0684 15.2121 76.8448 16.4617 77.6236 17.7137C77.8754 18.1876 78.1272 18.6639 78.3789 19.1378C79.1366 20.8683 79.8919 22.5989 80.6495 24.3272C80.6825 24.4757 80.7154 24.6242 80.7507 24.7751C80.8895 25.1712 81.0307 25.565 81.1695 25.9611C81.0872 26.0695 81.0025 26.1803 80.9201 26.2888C80.3484 26.3477 79.7789 26.4208 79.2684 26.7155C79.1154 26.7462 78.9648 26.7792 78.8119 26.8099C78.546 26.7344 78.3154 26.8122 78.0966 26.9607C77.9436 26.989 77.7931 27.0173 77.6401 27.0456C77.4519 26.9961 77.2848 27.0268 77.1578 27.1894C76.9225 27.2484 76.6895 27.305 76.4542 27.3639C76.0825 27.2696 75.7672 27.4111 75.4613 27.595C75.1531 27.6539 74.8472 27.7152 74.5389 27.7742C74.4284 27.6775 74.3554 27.7294 74.2942 27.8355C74.0636 27.8897 73.8331 27.9463 73.6025 28.0005C73.4895 27.9133 73.4048 27.9581 73.3295 28.0571C73.0072 28.05 72.6966 28.0807 72.4166 28.2599C72.3366 28.274 72.2566 28.2882 72.1789 28.3023C71.2495 28.4886 70.3225 28.6772 69.3931 28.8634C69.1978 28.8116 69.0307 28.8564 68.8942 29.0096C68.8142 28.979 68.746 28.9931 68.6895 29.0568C68.5366 29.0827 68.3836 29.111 68.2307 29.1369C67.7507 29.2525 67.2166 29.1464 66.793 29.4859C66.5719 29.5283 66.3483 29.5684 66.1272 29.6108C64.8495 29.8183 63.5742 30.0305 62.353 30.4809C62.2001 30.5162 62.0472 30.5492 61.8919 30.5846C61.7036 30.5068 61.5483 30.5563 61.4142 30.7001C61.1813 30.7591 60.9483 30.8156 60.7154 30.8746C60.5413 30.7991 60.3836 30.8274 60.2471 30.9595C59.7671 31.0632 59.2871 31.167 58.8048 31.2731C58.5742 31.2353 58.3436 31.2 58.113 31.1622C58.0871 31.0797 58.0613 30.9995 58.0354 30.917C57.8777 30.1956 57.6566 29.5 57.273 28.8634C56.9366 27.9227 56.553 27.0055 55.9483 26.1992C55.8895 26.119 55.833 26.0365 55.7742 25.9564C55.2707 25.1335 54.7201 24.3507 53.9271 23.7754C53.4918 23.1695 52.9413 22.7003 52.2683 22.3773C50.6707 21.0829 48.8565 20.2718 46.8401 19.8946C46.6871 19.8757 46.5342 19.8545 46.3789 19.8357C46.1695 19.6683 45.9295 19.6305 45.673 19.68C45.2848 19.6494 44.8965 19.6187 44.5059 19.5881C41.8871 19.2462 39.3789 19.6777 36.9436 20.6491C35.0918 21.3682 33.4001 22.3301 32.0824 23.8603C31.8118 23.9641 31.6 24.1244 31.5389 24.4285C31.4 24.5747 31.2589 24.7209 31.12 24.8671C31.073 24.9166 31.0236 24.9661 30.9765 25.0156C29.9271 26.2063 29.04 27.4983 28.5365 29.0238C27.7295 30.4856 27.3012 32.0629 27.1106 33.711C26.9836 33.8548 26.9342 34.0151 26.9883 34.2037C26.5789 35.9673 26.393 37.7568 26.393 39.5652C26.16 40.1877 26.2542 40.8242 26.3083 41.4585C26.1389 42.4841 26.1742 43.5121 26.2847 44.54C26.2824 48.046 26.4283 51.5355 27.32 54.9518C27.5483 56.6942 28.0824 58.3305 28.9483 59.8606C29.553 61.2871 30.3365 62.5838 31.5977 63.534C31.9765 64.0621 32.473 64.4488 33.0306 64.7671C33.033 64.8944 33.0942 64.9463 33.2212 64.9109C33.4448 65.0547 33.6659 65.1962 33.8895 65.34C34.7271 66.0356 35.6895 66.4576 36.753 66.6627C36.8283 66.6934 36.9036 66.7217 36.9812 66.7523C37.1459 66.7995 37.3106 66.8443 37.473 66.8914C37.5883 67.014 37.7201 67.073 37.8871 67.0022C38.4989 67.2734 39.1459 67.3653 39.8071 67.3653C40.2612 67.4785 40.7154 67.5964 41.1907 67.4997C41.5059 67.6011 41.8212 67.6011 42.1365 67.495C43.9765 67.6506 45.7765 67.4596 47.5365 66.8961C48.8707 66.7193 50.0283 66.1204 51.1295 65.3872C51.5789 65.2151 51.9883 64.9911 52.2542 64.569C53.8095 63.4727 54.9248 62.0062 55.7719 60.3204C55.8236 60.2402 55.873 60.1624 55.9248 60.0823C55.9554 60.0021 55.986 59.9219 56.0142 59.8441C57.6424 57.2388 58.5107 54.3624 59.0542 51.3681C59.4471 51.1653 59.8307 51.4459 60.2236 51.394C60.9013 51.717 61.6001 51.9599 62.3483 52.0471C62.5836 52.1249 62.8213 52.2051 63.0566 52.2829C63.4048 52.5493 63.8001 52.6742 64.2354 52.6742C64.3883 52.712 64.5413 52.7473 64.6942 52.7851C64.7366 52.8959 64.8001 52.936 64.9036 52.8511C65.0707 52.8982 65.2377 52.9477 65.4025 52.9949C65.8213 53.3038 66.306 53.4122 66.8119 53.4499C66.8872 53.4664 66.9625 53.4806 67.0378 53.4971C67.2377 53.7022 67.4895 53.7234 67.753 53.7022C67.8778 53.8366 68.0189 53.9333 68.2166 53.8932C71.1907 54.775 74.1672 55.6591 77.1413 56.5409C77.2519 56.7201 77.4189 56.7602 77.6142 56.7343C77.6872 56.7531 77.7601 56.772 77.8331 56.7909C77.9601 56.9394 78.1178 56.9913 78.3084 56.9559C79.4731 57.2954 80.6401 57.6349 81.8048 57.9744C81.8613 58.1301 81.9201 58.2857 81.9766 58.4413C81.9319 58.6818 81.8872 58.9223 81.8425 59.1627C81.8166 59.1722 81.7695 59.184 81.7695 59.191C81.7742 59.2358 81.7884 59.2806 81.8001 59.3254C81.7531 59.4975 81.706 59.6697 81.6589 59.8394C81.1248 61.471 80.5907 63.1025 80.0566 64.7341C79.3225 66.3303 78.586 67.9265 77.8519 69.5227C77.5813 69.7655 77.4378 70.0791 77.3625 70.428C76.2825 72.0006 75.2025 73.5732 74.1225 75.1459C73.6401 75.6952 73.1578 76.2446 72.6754 76.7916C72.3695 76.9519 72.1107 77.1617 71.9625 77.4847C71.3366 78.0671 70.7107 78.6495 70.0872 79.2318C70.0307 79.2813 69.9719 79.3332 69.9154 79.3827C69.8189 79.4605 69.7248 79.5383 69.6283 79.6185C68.8189 80.2291 68.0095 80.8398 67.2025 81.4481C66.4448 81.8819 65.6895 82.3157 64.9319 82.7496C64.8566 82.8014 64.7789 82.8533 64.7036 82.9052C64.6213 82.9429 64.5413 82.9806 64.4589 83.0184C64.3883 83.0608 64.3201 83.1032 64.2495 83.1457C64.1625 83.1763 64.0754 83.207 63.9907 83.2376C63.8589 83.1928 63.793 83.2447 63.7766 83.3791C63.5319 83.5041 63.2872 83.629 63.0424 83.7516C62.9295 83.6903 62.8636 83.7327 62.8307 83.8483C62.753 83.8766 62.673 83.9049 62.5954 83.9355C61.4777 84.367 60.3601 84.7961 59.2424 85.2276C58.793 85.3454 58.3413 85.4633 57.8919 85.5836C57.4895 85.7038 57.0919 85.8241 56.6966 85.9443Z" fill="#0E1F40"/>
<path d="M129.788 57.4956C129.701 57.5145 129.612 57.5333 129.525 57.5522C127.405 57.5546 125.282 57.5546 123.162 57.5569C122.073 57.5593 120.986 57.564 119.896 57.5663C119.56 57.5168 119.501 57.6984 119.555 57.9766C119.513 58.2053 119.471 58.4364 119.428 58.6651C119.209 58.8584 119.191 59.1036 119.249 59.37C119.233 59.528 119.216 59.6836 119.2 59.8416C119.066 59.976 119.021 60.1339 119.075 60.3178C119.026 60.6267 118.976 60.9356 118.927 61.2444C118.762 61.3717 118.748 61.5415 118.791 61.7278C118.767 61.8834 118.741 62.039 118.718 62.1946C118.496 62.4752 118.475 62.8005 118.515 63.1377C118.353 63.6729 118.174 64.2057 118.238 64.781L118.226 64.7692C118.059 64.9838 117.995 65.2243 118.061 65.4907C118.038 65.6393 118.014 65.7854 117.99 65.934C117.965 65.9528 117.915 65.974 117.918 65.9929C117.92 66.0495 117.941 66.1061 117.955 66.165C117.896 66.4102 117.84 66.6531 117.781 66.8983C117.616 67.1954 117.52 67.5066 117.595 67.8532C117.576 68.0041 117.555 68.1573 117.536 68.3082C117.374 68.7632 117.209 69.2183 117.047 69.6757C116.896 69.6898 116.746 69.704 116.595 69.7181C116.125 69.5955 115.652 69.5955 115.181 69.7181C114.478 69.7158 113.776 69.7111 113.073 69.7087C111.419 69.5767 109.762 69.5767 108.108 69.7111C107.866 69.6427 107.623 69.5743 107.381 69.5059C107.475 69.1876 107.602 68.8741 107.518 68.5322C107.56 68.2988 107.602 68.0654 107.645 67.8343C107.774 67.6952 107.816 67.5372 107.741 67.3557C107.783 67.1223 107.826 66.8889 107.868 66.6554C108.07 66.4574 108.12 66.2193 108.054 65.9481C108.087 65.7288 108.12 65.5072 108.155 65.2879C108.318 65.1394 108.358 64.9649 108.278 64.7598C108.296 64.6066 108.315 64.4557 108.336 64.3024C108.536 64.0973 108.581 63.8544 108.515 63.5857C108.539 63.4513 108.562 63.3169 108.586 63.1825C108.753 62.9514 108.835 62.6992 108.767 62.4115C108.798 62.1899 108.828 61.9706 108.856 61.749C109.012 61.6122 109.049 61.4448 108.993 61.2491C109.021 61.0134 109.047 60.7776 109.075 60.5442C109.233 60.3343 109.301 60.1009 109.259 59.8369C109.36 59.3016 109.461 58.7641 109.562 58.2289C109.687 58.0096 109.882 57.788 109.534 57.5899C109.073 57.4508 108.609 57.4956 108.146 57.5616C106.419 57.5616 104.692 57.5593 102.965 57.5593C102.809 57.5616 102.654 57.5663 102.499 57.5687C102.346 57.5098 102.294 57.5663 102.325 57.7196C102.056 58.3986 101.925 59.1059 101.896 59.8321C101.506 61.7183 101.115 63.6045 100.722 65.4931C100.494 66.0943 100.35 66.712 100.367 67.358C100.2 67.4901 100.195 67.6622 100.242 67.8461C100.202 68.0748 100.162 68.3035 100.125 68.5322C99.9364 68.6548 99.9505 68.8363 99.9881 69.0226C99.9646 69.1735 99.9387 69.3268 99.9152 69.4776C99.814 69.5484 99.7105 69.6215 99.6093 69.6922C99.0869 69.6993 98.5622 69.7063 98.0399 69.7158C96.3175 69.7181 94.5952 69.7181 92.8728 69.7205C92.0187 69.7064 91.1646 69.6922 90.3081 69.6781C90.0681 68.3931 90.7152 67.2166 90.7622 65.9646C90.8752 65.8255 90.9387 65.677 90.8493 65.4978C90.894 65.2573 90.9387 65.0168 90.9834 64.7787L91.0046 64.7928C91.0281 64.7763 91.0728 64.7575 91.0728 64.7409C91.0705 64.6891 91.0516 64.6372 91.0375 64.583C91.2234 64.2105 91.254 63.8096 91.2446 63.4018C91.3458 63.3381 91.3858 63.2626 91.3034 63.1566C91.3458 62.9892 91.3881 62.8218 91.4305 62.6544C91.5646 62.5152 91.6022 62.3573 91.5175 62.1781C91.5622 61.9447 91.6093 61.7089 91.654 61.4755C91.8046 61.2586 91.8611 61.0252 91.7858 60.7658C91.8187 60.6102 91.8516 60.4546 91.8846 60.299C92.0281 60.1622 92.1128 60.0113 92.0093 59.8109C92.0563 59.5846 92.1011 59.3582 92.1481 59.1319C92.3105 58.9975 92.3458 58.8325 92.2658 58.6391C92.3034 58.4104 92.3411 58.1817 92.3811 57.9554C92.5128 57.7055 92.5599 57.5027 92.1552 57.5593C90.7411 57.5404 89.3269 57.5216 87.9128 57.505C87.854 57.4037 87.7928 57.3046 87.734 57.2033C87.7269 56.984 87.7222 56.7671 87.7152 56.5478C87.7152 56.3898 87.7152 56.2342 87.7152 56.0763C87.7152 55.8405 87.7152 55.6047 87.7128 55.3713C87.8046 55.0577 87.814 54.7441 87.7128 54.4306C87.8022 52.8627 87.8093 51.2948 87.7105 49.7269C87.7152 49.6491 87.7222 49.5736 87.7269 49.4958C87.8328 49.3355 87.8352 49.1728 87.7269 49.0125C87.734 48.7295 87.741 48.4443 87.7481 48.1613C88.8963 47.869 90.0634 48.0434 91.2187 48.034C94.534 48.0057 94.534 48.0246 95.0916 44.7497C95.1034 44.6766 95.0775 44.5964 95.0705 44.521C95.1034 44.3701 95.1364 44.2192 95.1693 44.0707C95.3175 43.9339 95.3834 43.7783 95.2846 43.5826C95.3481 43.2101 95.4116 42.8352 95.4728 42.4627C95.6352 42.3283 95.6752 42.1585 95.6116 41.9628C95.6352 41.8001 95.6587 41.6375 95.6822 41.4771C95.8916 41.2838 95.8964 41.041 95.8493 40.7863C95.8799 40.5529 95.9105 40.3218 95.9411 40.0884C96.1199 39.7631 96.3622 39.4118 95.6869 39.4047C94.7505 39.2892 93.814 39.2939 92.8775 39.4047C91.1999 39.3528 89.5222 39.3009 87.8422 39.2514C87.7975 38.5889 87.7552 37.924 87.7105 37.2615C87.8046 36.3208 87.8258 35.3777 87.701 34.4369C87.7269 32.9162 87.7528 31.3954 87.781 29.8747C90.6963 29.6578 93.614 29.8488 96.5293 29.804C98.2022 29.778 98.2022 29.7993 98.3434 28.0828C98.5034 27.7928 98.5764 27.4863 98.534 27.1539C98.6987 27.0242 98.7105 26.8544 98.6587 26.6682C98.694 26.4536 98.7317 26.2391 98.7669 26.0245C98.9034 25.9703 98.9105 25.8665 98.8728 25.7463C98.9152 25.4422 98.9575 25.1404 98.9999 24.8362C99.5128 22.9642 99.8422 21.0568 100.127 19.1399C100.195 19.0833 100.209 19.0173 100.167 18.9371C100.329 18.7179 100.388 18.475 100.322 18.2063C100.402 17.6899 100.699 17.506 101.219 17.5249C101.8 17.5461 102.383 17.4871 102.967 17.4636C104.694 17.5838 106.419 17.5838 108.146 17.4636C108.769 17.5885 109.393 17.5508 110.019 17.4871C110.115 17.5626 110.212 17.638 110.306 17.7158C110.278 17.954 110.249 18.1897 110.221 18.4279C110.012 18.6354 110.014 18.8853 110.078 19.147C110.045 19.2979 110.012 19.4488 109.979 19.602C109.805 19.7317 109.812 19.9062 109.861 20.0901C109.828 20.3235 109.798 20.5546 109.765 20.788C109.616 20.9224 109.605 21.0874 109.649 21.269C109.607 21.5 109.565 21.7311 109.525 21.9621C109.355 22.0871 109.353 22.2592 109.386 22.4431C109.167 23.0467 109.045 23.6668 109.045 24.3104C108.63 25.9373 108.256 27.5735 108.07 29.2452C107.715 29.8888 108.252 29.7757 108.553 29.778C110.612 29.7969 112.673 29.7898 114.732 29.804C115.136 29.8063 115.362 29.6979 115.438 29.2428C115.711 27.5971 116.028 25.9585 116.327 24.3175C116.398 24.2704 116.414 24.2091 116.379 24.1312C116.407 24.1077 116.461 24.0865 116.461 24.0605C116.463 23.9945 116.445 23.9261 116.433 23.8578C116.468 23.6951 116.503 23.5324 116.539 23.3697C116.814 22.7661 116.918 22.1295 116.91 21.4717C116.96 21.2454 117.009 21.0214 117.059 20.795C117.089 20.7809 117.146 20.7644 117.143 20.7503C117.141 20.6913 117.122 20.6324 117.108 20.5734C117.172 20.2598 117.235 19.9486 117.301 19.635C117.485 19.5054 117.508 19.3309 117.438 19.1328C117.456 18.9772 117.475 18.8216 117.494 18.666C117.598 18.5175 117.661 18.3642 117.569 18.185C117.626 18.0129 117.682 17.8408 117.739 17.6687C120.776 17.4659 123.819 17.6121 126.859 17.5532C127.336 17.5437 127.471 17.7819 127.471 18.1921C127.426 18.5033 127.381 18.8145 127.336 19.1234C126.875 20.6253 126.642 22.172 126.381 23.7139C125.993 25.6001 125.602 27.484 125.214 29.3701C125.103 29.5022 125.012 29.6319 125.285 29.6743C126.294 29.9077 127.313 29.7969 128.329 29.738C128.847 29.9313 129.468 29.5988 129.936 30.0539C129.941 30.16 129.943 30.2661 129.948 30.3722C129.842 30.4924 129.845 30.6127 129.948 30.7306C129.948 30.8437 129.948 30.9593 129.948 31.0724C129.918 33.4514 129.854 35.8327 129.875 38.2117C129.882 39.0062 129.694 39.3222 128.845 39.2939C127.247 39.2373 125.647 39.2892 124.047 39.2868C123.6 39.2868 123.193 39.275 123.082 39.8692C122.734 41.7459 122.362 43.6203 122 45.4947C121.875 45.7965 121.758 46.0983 121.821 46.4355C121.8 46.5911 121.779 46.749 121.758 46.9047C121.593 47.3738 121.059 48.0081 122.136 48.0081C124.583 48.0034 127.033 47.9586 129.48 47.9303C129.612 47.9821 129.741 48.0364 129.873 48.0882C129.849 51.2193 129.991 54.3598 129.788 57.4956ZM105.308 42.8729C105.158 43.0945 105.082 43.3327 105.148 43.6015C105.122 43.75 105.096 43.9009 105.073 44.0494C104.823 45.1505 104.581 46.2563 104.32 47.355C104.176 47.9562 104.529 47.9939 104.972 47.9939C106.965 47.9939 108.96 47.9869 110.953 48.0175C111.602 48.0269 111.915 47.8006 111.842 47.131C111.946 46.518 112.047 45.905 112.15 45.292C112.525 43.5543 112.894 41.8143 113.273 40.0766C113.388 39.5438 113.256 39.2632 112.652 39.2915C111.148 39.3622 109.635 39.176 108.134 39.3929C107.595 39.3693 107.059 39.3457 106.52 39.3245C106.115 39.308 105.878 39.4731 105.812 39.9069C105.661 40.8995 105.478 41.885 105.308 42.8729Z" fill="#0E1F40"/>
</svg>
