<svg width="107" height="105" viewBox="0 0 107 105" fill="none" xmlns="http://www.w3.org/2000/svg">
<path d="M0.965515 0.620697V104.897H106.483V0.620697H0.965515ZM57.4926 81.6207C57.4926 91.7713 51.4254 96.7197 42.6425 96.7197C34.7098 96.7197 30.1052 92.6604 27.7688 87.7609L35.8427 82.9311C37.3996 85.6614 38.5819 87.9704 41.9806 87.9704C44.807 87.9704 47.1293 86.7111 47.1293 81.8116V49.0345H57.4926V81.6207ZM80.8925 96.487C71.6856 96.487 65.7361 92.3811 62.8321 86.7111L70.9178 82.0862C73.0376 85.5171 75.805 87.8028 80.6923 87.8028C84.7999 87.8028 87.1858 86.0059 87.1858 83.2058C87.1858 79.8471 84.7292 78.6577 80.1953 76.6885L77.7175 75.6365C70.5621 72.6292 65.8186 68.8492 65.8186 60.8679C65.8186 53.5197 71.4831 48.1523 80.3366 48.1523C86.6417 48.1523 91.171 50.0889 94.4331 55.7589L86.6983 60.6724C84.9977 57.6628 83.1653 56.4828 80.3248 56.4828C77.4208 56.4828 75.5789 58.3029 75.5789 60.6724C75.5789 63.6122 77.4208 64.8016 81.6697 66.6217L84.1475 67.6715C92.5771 71.242 97.323 74.887 97.323 83.0708C97.3254 91.8923 90.3137 96.487 80.8925 96.487Z" fill="#0E1F40"/>
</svg>
