<svg width="92" height="123" viewBox="0 0 92 123" fill="none" xmlns="http://www.w3.org/2000/svg">
<path d="M58.5026 0C61.6765 4.25269 61.9477 8.86708 60.4414 13.6824C59.144 17.8292 56.6261 21.2525 53.7638 24.453C50.6632 27.9165 47.0385 30.7991 43.4761 33.7548C41.7829 35.1614 40.2729 36.7507 38.9718 38.5227C34.4419 44.6825 34.6361 50.1883 39.5582 57.32C41.5116 60.1551 43.6667 62.866 44.9604 66.2053C43.8939 65.2043 42.8201 64.2105 41.7609 63.2058C38.6713 60.2647 35.6366 57.2761 33.1408 53.7943C27.7532 46.2864 28.2297 40.6892 34.812 34.2371C38.6053 30.5178 42.9996 27.5183 47.0385 24.0949C48.4312 22.9148 49.8055 21.7055 51.1396 20.4633C57.1099 14.91 60.1922 8.32636 58.5026 0Z" fill="#0E1F40"/>
<path d="M18.6091 104.196C16.52 104.817 14.3503 105.091 12.3052 105.869C11.0481 106.347 9.78738 106.815 8.68788 107.597C7.3355 108.562 7.38314 109.413 8.90045 110.154C11.5063 111.426 14.3613 111.915 17.187 112.31C29.9926 114.082 42.8567 114.053 55.7319 113.293C62.6148 112.887 69.4793 112.288 76.2522 110.925C78.3486 110.502 80.4303 110.001 82.3398 109.018C83.7032 108.317 84.81 107.378 84.2933 105.511C86.2577 106.669 86.353 107.966 84.6121 109.318C82.3508 111.068 79.6607 111.93 76.9669 112.712C69.3803 114.919 61.5812 115.898 53.7235 116.438C40.2949 117.363 26.8956 116.943 13.5367 115.299C10.4544 114.919 7.39047 114.403 4.32653 113.881C3.43593 113.728 2.55267 113.413 1.72804 113.041C-0.320696 112.113 -0.533266 110.823 1.01337 109.234C2.01391 108.207 3.26001 107.549 4.5281 106.965C8.99208 104.923 13.5917 103.509 18.6091 104.196Z" fill="#0E1F40"/>
<path d="M51.8506 69.5877C54.7752 64.4655 54.5883 62.1784 50.7657 57.4909C48.7097 54.97 46.9798 52.2481 46.2724 49.0367C45.1766 44.0569 46.9981 39.9613 50.4249 36.4576C54.9108 31.8688 60.5476 29.1396 66.4446 26.8891C67.6614 26.4251 68.8195 25.5775 70.2929 25.9026C70.2452 26.7868 69.4352 26.8635 68.9258 27.1887C64.2126 30.2211 59.4298 33.1695 55.6842 37.4295C52.3087 41.2693 51.9935 44.2944 54.592 48.7152C55.7281 50.6479 57.1318 52.4271 58.3633 54.3087C60.3644 57.3557 60.3717 60.4868 58.5025 63.574C56.8973 66.2301 54.8192 68.4259 51.8506 69.5877Z" fill="#0E1F40"/>
<path d="M28.2626 95.4662C27.6213 97.1943 28.6438 97.7314 29.8423 98.0492C32.9868 98.8822 36.2267 99.0064 39.4482 99.1928C44.8285 99.507 50.183 99.1161 55.4606 98.031C57.4141 97.6291 59.1073 97.651 60.8262 98.8018C62.0137 99.5947 63.4174 100.07 64.986 100.808C60.9435 102.572 56.9889 103.606 52.9245 104.22C45.1327 105.396 37.3702 105.415 29.7176 103.255C27.8961 102.744 26.1113 102.097 24.6343 100.851C23.0583 99.5252 23.106 98.2392 24.7369 96.9532C25.7008 96.1932 26.4375 95.8717 28.2626 95.4662Z" fill="#0E1F40"/>
<path d="M25.6642 68.865C23.8757 69.6359 21.9332 70.0414 20.2693 71.1046C19.6206 71.5174 18.6567 71.8316 18.8253 72.7779C18.9829 73.6657 19.9688 73.7936 20.7091 74.0055C23.7291 74.8641 26.8553 74.981 29.9596 75.054C42.9813 75.3536 55.9261 74.4147 68.7903 72.3833C69.428 72.281 70.0767 72.2481 70.8683 72.1678C66.6939 75.4523 61.7975 75.9565 57.0073 76.6031C44.9348 78.2362 32.8183 78.671 20.6724 77.3923C17.6378 77.0744 14.6032 76.7164 11.7408 75.5765C10.9602 75.2659 10.0036 74.9883 9.98896 73.947C9.9743 73.0336 10.8063 72.6281 11.5026 72.2737C14.1158 70.9402 16.8279 69.8587 19.6682 69.1061C19.8442 69.0477 20.0237 68.9892 20.1997 68.9307C20.8887 68.77 21.5777 68.6092 22.2631 68.4485C22.5563 68.3718 22.8495 68.295 23.1427 68.222C23.6191 68.1343 24.0956 68.0466 24.572 67.9589C24.7113 67.937 24.8469 67.9114 24.9862 67.8895C25.5396 67.8201 26.093 67.7507 26.6464 67.6812C26.9469 67.853 27.3244 67.9297 27.4307 68.3316C27.2291 68.3937 27.0276 68.4594 26.826 68.5216C26.7014 68.5544 26.5731 68.591 26.4485 68.6239C26.3679 68.6677 26.2799 68.6933 26.1846 68.7006C26.005 68.7481 25.8364 68.8065 25.6642 68.865Z" fill="#0E1F40"/>
<path d="M25.3196 81.868C24.2824 84.4729 24.6562 85.3205 27.3463 85.7809C33.6831 86.866 40.0822 87.0596 46.4923 86.6723C51.4877 86.3691 56.4391 85.6969 61.3466 84.7214C62.0026 84.5898 62.5194 84.6812 63.0252 85.1306C64.1247 86.1024 65.4294 86.76 66.7525 87.3957C66.5362 88.1703 65.8399 87.9694 65.3854 88.0863C53.016 91.2283 40.522 92.2988 27.8631 90.1578C25.5212 89.7632 23.1939 89.2006 21.1671 87.8597C19.342 86.6541 19.3016 85.2694 21.0425 83.9322C22.263 83.0006 23.619 82.321 25.3196 81.868Z" fill="#0E1F40"/>
<path d="M70.0364 118.936C74.9439 117.986 79.8623 117.095 84.5755 115.352C86.8441 114.515 88.9992 113.481 91.1835 111.867C90.6667 114.037 89.3437 115.155 87.863 116.127C85.019 117.997 81.8121 119.002 78.5429 119.765C66.0819 122.674 53.412 123.087 40.6944 122.802C34.8927 122.674 29.113 122.257 23.3846 121.282C22.1861 121.077 21.0097 120.737 19.8222 120.46C19.8295 120.233 19.8369 120.007 19.8442 119.78C20.6945 119.882 21.5448 119.985 22.3987 120.087C22.6296 120.284 22.8715 120.317 23.1317 120.149C24.2312 120.248 25.3307 120.35 26.4265 120.449C26.6574 120.664 26.903 120.675 27.1632 120.5C28.5046 120.595 29.846 120.693 31.1874 120.788C32.023 121.212 32.877 121.241 33.7529 120.924C38.8289 121.114 43.9013 121.092 48.9773 120.96C50.0328 121.205 51.0737 121.245 52.0889 120.788C53.4303 120.697 54.7753 120.609 56.1167 120.518C56.3733 120.697 56.6152 120.693 56.8461 120.474C57.6524 120.401 58.4623 120.332 59.2686 120.259C59.4482 120.237 59.6278 120.215 59.8074 120.193C60.042 120.178 60.2765 120.164 60.5111 120.149C60.7713 120.328 61.0132 120.299 61.2441 120.091C61.8085 120.029 62.3729 119.963 62.9373 119.901C63.4981 120.069 64.0331 120.021 64.5426 119.725C65.3892 119.616 66.2395 119.502 67.0861 119.393C67.2144 119.378 67.3463 119.364 67.4746 119.345C68.0866 119.25 68.6987 119.159 69.3108 119.064C69.582 119.225 69.8275 119.181 70.0364 118.936Z" fill="#0E1F40"/>
<path d="M75.8453 67.2055C79.3454 65.9122 82.7465 65.682 86.0963 67.1945C91.165 69.4889 92.752 74.94 89.8346 79.759C88.4126 82.1045 86.3785 83.829 84.1062 85.3014C81.3245 87.1062 78.2752 88.3338 75.1343 89.3385C74.6102 89.5066 73.9432 90.0144 73.2615 89.2654C76.8275 87.2414 80.2323 85.1406 82.9591 82.1447C84.3298 80.6395 85.433 78.9771 85.9864 77.0006C87.478 71.692 83.0287 66.8255 77.5752 67.7791C77.0108 67.8814 76.3584 68.1189 75.8453 67.2055Z" fill="#0E1F40"/>
<path d="M27.4234 68.3204C27.3135 67.9185 26.9396 67.8418 26.6391 67.6701C27.8192 67.1549 29.0323 67.2024 30.2711 67.4362C29.3879 68.0172 28.4459 68.2948 27.4234 68.3204Z" fill="#0E1F40"/>
<path d="M19.8405 119.78C19.8332 120.007 19.8258 120.233 19.8185 120.46C18.9096 120.46 18.1253 120.145 17.176 119.575C18.2939 119.228 19.0635 119.55 19.8405 119.78Z" fill="#0E1F40"/>
<path d="M52.0851 120.786C51.0699 121.242 50.029 121.202 48.9735 120.957C49.9924 120.599 51.0332 120.588 52.0851 120.786Z" fill="#0E1F40"/>
<path d="M33.7492 120.921C32.8769 121.239 32.0193 121.213 31.1837 120.786C32.0523 120.592 32.9062 120.603 33.7492 120.921Z" fill="#0E1F40"/>
<path d="M64.5352 119.718C64.0258 120.014 63.4907 120.062 62.9299 119.894C63.443 119.62 63.9781 119.568 64.5352 119.718Z" fill="#0E1F40"/>
<path d="M23.1363 68.2184C22.8428 68.2953 22.5492 68.3721 22.2556 68.4452C22.4905 68.1306 22.7951 68.1014 23.1363 68.2184Z" fill="#0E1F40"/>
<path d="M23.1289 120.149C22.8684 120.321 22.6225 120.284 22.395 120.087C22.6556 119.944 22.9014 119.951 23.1289 120.149Z" fill="#0E1F40"/>
<path d="M61.2376 120.087C61.0101 120.296 60.7642 120.325 60.5037 120.146C60.7385 119.959 60.9807 119.941 61.2376 120.087Z" fill="#0E1F40"/>
<path d="M27.1604 120.501C26.8998 120.676 26.654 120.665 26.4228 120.45C26.6833 120.307 26.9292 120.314 27.1604 120.501Z" fill="#0E1F40"/>
<path d="M56.8396 120.471C56.6084 120.691 56.3662 120.694 56.1093 120.515C56.3442 120.332 56.5864 120.325 56.8396 120.471Z" fill="#0E1F40"/>
<path d="M70.0373 118.937C69.8281 119.182 69.5822 119.226 69.2997 119.062C69.5199 118.853 69.7621 118.806 70.0373 118.937Z" fill="#0E1F40"/>
<path d="M67.4677 119.342C67.3393 119.357 67.2072 119.371 67.0787 119.39C67.2072 119.371 67.3393 119.357 67.4677 119.342Z" fill="#0E1F40"/>
<path d="M59.8043 120.19C59.6245 120.211 59.4447 120.233 59.2649 120.255C59.4447 120.233 59.6245 120.211 59.8043 120.19Z" fill="#0E1F40"/>
<path d="M20.193 68.9275C20.0168 68.986 19.837 69.0445 19.6609 69.103C19.8407 69.0445 20.0168 68.986 20.193 68.9275Z" fill="#0E1F40"/>
<path d="M25.6642 68.8642C25.8367 68.8057 26.0055 68.7472 26.1779 68.6923C26.0055 68.7472 25.8367 68.8057 25.6642 68.8642Z" fill="#0E1F40"/>
<path d="M26.4411 68.6159C26.5659 68.583 26.6943 68.5464 26.8191 68.5135C26.6943 68.5464 26.5659 68.5793 26.4411 68.6159Z" fill="#0E1F40"/>
<path d="M24.983 67.8825C24.8436 67.9044 24.7078 67.93 24.5684 67.952C24.7041 67.93 24.8436 67.9081 24.983 67.8825Z" fill="#0E1F40"/>
</svg>
