<svg width="101" height="90" viewBox="0 0 101 90" fill="none" xmlns="http://www.w3.org/2000/svg">
<path d="M82.4436 29.4863C81.3857 29.1216 80.3202 28.7819 79.2471 28.4672C79.425 27.7363 79.5892 27.0013 79.7395 26.262C82.1601 14.3796 80.5774 4.80684 75.1756 1.6556C70.0034 -1.36825 61.521 1.78299 52.9641 9.31756C52.1227 10.061 51.2986 10.8267 50.4918 11.6147C49.9539 11.0912 49.4022 10.5789 48.8367 10.0777C39.8681 2.02105 30.8788 -1.37243 25.4832 1.78925C20.311 4.81937 18.7738 13.8178 20.9523 25.08C21.1702 26.1938 21.4151 27.3027 21.6868 28.4067C20.4503 28.7605 19.2244 29.1505 18.0104 29.5761C7.50874 33.2828 0.793152 39.0946 0.793152 45.1214C0.793152 51.3487 8.00113 57.5927 18.9517 61.3788C19.8399 61.6837 20.7365 61.967 21.6412 62.2287C21.3475 63.4107 21.0875 64.6059 20.8613 65.8143C18.7924 76.8823 20.4061 85.6677 25.568 88.6791C30.8995 91.7885 39.8433 88.5934 48.5615 80.8876C49.2511 80.2779 49.9408 79.634 50.6304 78.956C51.5021 79.8066 52.3986 80.6322 53.3199 81.4327C61.761 88.7793 70.0965 91.7468 75.2501 88.7271C80.5774 85.6072 82.3091 76.1681 80.0602 64.6845C79.8878 63.8075 79.6892 62.9123 79.4644 61.999C80.0933 61.8111 80.7091 61.6168 81.3119 61.4164C92.6907 57.6011 100.104 51.4322 100.104 45.1277C100.099 39.0716 93.1686 33.2223 82.4436 29.4863ZM55.755 12.5544C63.085 6.0995 69.9372 3.55178 73.0612 5.37277C76.3859 7.3128 77.6789 15.1356 75.5893 25.3954C75.4514 26.0636 75.3025 26.7298 75.1425 27.3938C70.7681 26.3895 66.3322 25.6807 61.8644 25.2721C59.3063 21.5526 56.5021 18.0119 53.471 14.674C54.213 13.9473 54.973 13.2408 55.7509 12.5544H55.755ZM30.1154 50.2711C31.0133 52.0253 31.9519 53.7579 32.9311 55.4689C33.9283 57.2147 34.9676 58.9348 36.0489 60.6291C32.9747 60.2917 29.9198 59.7947 26.8962 59.1401C27.7734 56.275 28.8534 53.2992 30.1154 50.2711ZM30.1154 40.1784C28.8741 37.2151 27.8231 34.2998 26.9603 31.4848C29.7947 30.8437 32.8153 30.3195 35.9641 29.9228C34.909 31.5851 33.8938 33.2717 32.9187 34.9827C31.9436 36.6937 31.0071 38.4256 30.1092 40.1784H30.1154ZM32.3705 45.2258C33.678 42.4734 35.0862 39.774 36.5951 37.1274C38.1026 34.4822 39.7074 31.8976 41.4094 29.3736C44.3638 29.148 47.3926 29.029 50.4525 29.029C53.5123 29.029 56.5598 29.148 59.5121 29.3756C61.1962 31.8941 62.7913 34.4697 64.2974 37.1023C65.8036 39.735 67.2304 42.4219 68.5779 45.1632C67.2483 47.9253 65.8249 50.6359 64.3078 53.295C62.803 55.9402 61.2168 58.5324 59.5493 61.0718C56.6012 61.2806 53.5496 61.3955 50.4463 61.3955C47.3429 61.3955 44.3493 61.2973 41.4549 61.1073C39.7405 58.5749 38.1226 55.9791 36.6013 53.32C35.08 50.6609 33.6676 47.9629 32.3643 45.2258H32.3705ZM67.98 55.4397C68.98 53.6883 69.9399 51.9139 70.8599 50.1166C72.121 53.0028 73.2341 55.9526 74.1949 58.9543C71.1358 59.6496 68.0427 60.1828 64.9284 60.5518C65.9794 58.8686 66.9966 57.1646 67.98 55.4397ZM70.8185 40.1805C69.9027 38.4194 68.9503 36.6791 67.9614 34.9597C66.9959 33.264 65.9898 31.5892 64.9429 29.9353C68.1104 30.3404 71.1495 30.8792 73.9984 31.537C73.0824 34.4701 72.0211 37.3549 70.8185 40.1805ZM50.4938 17.7417C52.5597 20.0203 54.5104 22.4026 56.3384 24.8795C52.4282 24.6916 48.5153 24.6916 44.5996 24.8795C46.5299 22.3026 48.5057 19.9115 50.4938 17.7417ZM27.6182 5.50016C30.9409 3.55386 38.2875 6.33547 46.0313 13.2832C46.5257 13.728 47.0243 14.1937 47.5209 14.6761C44.4742 18.0135 41.6501 21.5512 39.0674 25.2659C34.6095 25.6713 30.1824 26.3689 25.8142 27.3542C25.5618 26.3295 25.3342 25.2979 25.1314 24.2593C23.2591 14.6051 24.4984 7.32742 27.6182 5.50016ZM22.775 58.0939C21.9474 57.8558 21.1302 57.5976 20.3234 57.3191C15.4822 55.6485 11.4831 53.4683 8.73765 51.0939C6.27982 48.9659 5.03435 46.8421 5.03435 45.1214C5.03435 41.4648 10.4259 36.7995 19.4172 33.6358C20.5468 33.239 21.6861 32.8763 22.835 32.5478C24.1704 36.8795 25.7876 41.1175 27.6762 45.2342C25.7651 49.4077 24.1278 53.7036 22.775 58.0939ZM45.7665 77.655C41.9121 81.0631 38.0516 83.4792 34.6483 84.6967C31.5905 85.7889 29.1554 85.8202 27.6844 84.9619C24.5522 83.1346 23.2488 76.0783 25.0259 66.6141C25.237 65.5004 25.4783 64.3866 25.75 63.2729C30.162 64.2322 34.6335 64.8873 39.1336 65.2338C41.7416 68.9678 44.5889 72.5256 47.6574 75.8841C47.0409 76.4959 46.4099 77.0849 45.7665 77.655ZM50.6118 72.8059C48.6008 70.6111 46.594 68.1824 44.6368 65.5721C46.5388 65.6473 48.4753 65.6848 50.4463 65.6848C52.4696 65.6848 54.4723 65.641 56.446 65.5512C54.6246 68.0679 52.6773 70.4893 50.6118 72.8059ZM76.3735 78.7764C75.7818 82.0007 74.5922 84.1516 73.1212 85.012C69.991 86.8455 63.2981 84.4628 56.0819 78.1791C55.2543 77.4607 54.4268 76.6902 53.5848 75.882C56.5935 72.5104 59.3741 68.9383 61.9078 65.1899C66.4329 64.8029 70.9261 64.1017 75.3556 63.0912C75.5583 63.9181 75.7376 64.7284 75.8935 65.522C76.8886 70.5965 77.0314 75.1866 76.3735 78.7764ZM79.9733 57.3421C79.4313 57.5238 78.8727 57.6992 78.3058 57.8704C76.9169 53.5183 75.2365 49.2665 73.2763 45.1444C75.163 41.0772 76.7776 36.8871 78.1092 32.6021C79.1251 32.9007 80.1119 33.2139 81.0615 33.546C90.2515 36.7452 95.8582 41.4815 95.8582 45.1214C95.8582 49.0056 89.8026 54.0468 79.9733 57.3421Z" fill="black"/>
</svg>
